Exploring lost empires, finding priceless treasures, punishing villains in mortal combat: it's all in a day's work for adventurer Lara Croft (Angelina Jolie).

A secret from her father's (Jon Voight) past is about to lead Lara to her greatest challenge: the Triangle of Light, a legendary artefact with the power to alter space and time. Lara must find the Triangle before it falls in to the clutch of the Illuminati, a secret society bent on world domination. To stop the Illuminati, Lara will have to survive a cross-continental chase filled with unimaginable danger. But for the Tomb Raider, danger is the name of the game.

With eye-popping action and electrifying thrills!




Format                           : MPEG-4
Format profile                   : Base Media / Version 2
Codec ID                         : mp42
File size                        : 899 MiB
Duration                         : 1h 36mn
Overall bit rate                 : 1 304 Kbps
Encoded date                     : UTC 2009-12-12 12:02:21
Tagged date                      : UTC 2009-12-12 18:27:45
Writing application              : HandBrake 0.9.3 2008112300

Video
ID                               : 1
Format                           : AVC
Format/Info                      : Advanced Video Codec
Format profile                   : Main@L4.0
Format settings, CABAC           : Yes
Format settings, ReFrames        : 3 frames
Codec ID                         : avc1
Codec ID/Info                    : Advanced Video Coding
Duration                         : 1h 36mn
Bit rate mode                    : Variable
Bit rate                         : 1 141 Kbps
Width                            : 714 pixels
Height                           : 434 pixels
Display aspect ratio             : 2.35:1
Frame rate mode                  : Variable
Frame rate                       : 25.000 fps
Minimum frame rate               : 12.500 fps
Maximum frame rate               : 86.486 fps
Resolution                       : 24 bits
Colorimetry                      : 4:2:0
Scan type                        : Progressive
Bits/(Pixel*Frame)               : 0.147
Stream size                      : 786 MiB (87%)
Writing library                  : x264 core 65
0
Audio
ID                               : 2
Format                           : AAC
Format/Info                      : Advanced Audio Codec
Format version                   : Version 4
Format profile                   : LC
Format settings, SBR             : No
Codec ID                         : 40
Duration                         : 1h 36mn
Bit rate mode                    : Variable
Bit rate                         : 160 Kbps
Maximum bit rate                 : 224 Kbps
Channel(s)                       : 2 channels
Channel positions                : L R
Sampling rate                    : 48.0 KHz
Resolution                       : 16 bits
Stream size                      : 110 MiB (12%)
Language                         : English
Encoded date                     : UTC 2009-12-12 12:02:21
Tagged date                      : UTC 2009-12-12 18:27:37

